<?xml version="1.0" encoding="iso-8859-1"?>
<!-- Generator: Adobe Illustrator 16.0.0, SVG Export Plug-In . SVG Version: 6.00 Build 0)  -->
<!DOCTYPE svg PUBLIC "-//W3C//DTD SVG 1.1//EN" "http://www.w3.org/Graphics/SVG/1.1/DTD/svg11.dtd">
<svg version="1.1" id="Capa_1" xmlns="http://www.w3.org/2000/svg" xmlns:xlink="http://www.w3.org/1999/xlink" x="0px" y="0px"
	 width="314.014px" height="314.014px" viewBox="0 0 314.014 314.014" style="enable-background:new 0 0 314.014 314.014;"
	 xml:space="preserve">
<g>
	<g id="_x32_23._Calender">
		<g>
			<path d="M168.98,181.89c-1.362,1.871-2.376,3.995-3.049,6.384c-0.689,2.393-1.026,5.658-1.026,9.813
				c0,4.148,0.966,8.144,2.909,11.982c1.939,3.852,4.665,7.069,8.159,9.662c7.005,5.298,16.366,7.942,28.128,7.942
				c12.143,0,21.665-2.645,28.573-7.942c3.387-2.593,6.039-5.811,7.943-9.662c1.883-3.839,2.837-8.563,2.837-14.174
				c0-5.498-1.567-10.536-4.669-15.12c-1.852-2.581-5.201-5.486-10.051-8.708v-0.613c1.547-1.347,3.002-2.705,4.368-4.056
				c4.669-4.46,7.001-10.59,7.001-18.378c0-9.756-3.49-17.5-10.495-23.215c-6.608-5.4-15.104-8.091-25.499-8.091
				s-18.843,2.697-25.363,8.091c-3.202,2.599-5.738,5.843-7.65,9.736c-1.884,3.891-2.837,8.494-2.837,13.784
				c0,5.297,1.214,10.026,3.65,14.178c1.351,2.188,3.928,4.825,7.715,7.951v0.621C174.779,175.297,171.221,178.563,168.98,181.89z
				 M193.907,148.87c0-3.014,0.994-5.588,2.989-7.708c1.992-2.128,4.437-3.194,7.366-3.194c2.805,0,5.214,1.066,7.205,3.194
				c1.995,2.128,2.989,4.703,2.989,7.708v3.581c0,3.012-0.994,5.579-2.989,7.703c-1.991,2.132-4.4,3.189-7.205,3.189
				c-2.914,0-5.374-1.065-7.366-3.189c-1.995-2.124-2.989-4.697-2.989-7.703V148.87z M193.907,191.082
				c0-3.014,0.994-5.582,2.989-7.714c1.992-2.124,4.437-3.19,7.366-3.19c2.805,0,5.214,1.066,7.205,3.19
				c1.995,2.132,2.989,4.709,2.989,7.714v5.134c0,3.014-0.994,5.582-2.989,7.714c-1.991,2.124-4.4,3.183-7.205,3.183
				c-2.914,0-5.374-1.066-7.366-3.183c-1.995-2.132-2.989-4.708-2.989-7.714V191.082z M235.513,70.657
				c8.659,0,15.7-7.033,15.7-15.701v-31.4c0-8.676-7.041-15.701-15.7-15.701c-8.664,0-15.701,7.025-15.701,15.701v31.4
				C219.812,63.624,226.849,70.657,235.513,70.657z M204.11,39.255h-94.205v31.402h94.205V39.255z M71.08,154.811v2.998h25.808
				V153.4c0-3.154,1-5.789,3.01-7.896c2-2.104,4.412-3.158,7.251-3.158h1.91c2.833,0,5.251,1.084,7.259,3.236
				c2.002,2.156,3.01,4.763,3.01,7.818c0,6.524-2.649,12.051-7.923,16.566l-29.03,24.643c-4.396,3.687-7.46,7.666-9.161,11.926
				c-1.713,4.264-2.569,9.385-2.569,15.38v5.695h78.443v-26.525h-38.562l15.984-11.998c9.966-7.474,16.563-14.84,19.791-22.093
				c1.755-4.012,2.637-8.732,2.637-14.215c0-10.315-3.272-18.737-9.82-25.261c-6.658-6.524-15.349-9.79-26.104-9.79h-4.546
				c-11.529,0-20.772,3.572-27.701,10.729C74.302,135.289,71.08,144.083,71.08,154.811z M282.611,39.255H266.91v31.402h15.701
				v204.108H31.402V70.657h15.699V39.255H31.402C14.06,39.255,0,53.309,0,70.657v204.101c0,17.352,14.06,31.401,31.402,31.401
				h251.209c17.345,0,31.402-14.05,31.402-31.401V70.657C314.014,53.309,299.956,39.255,282.611,39.255z M78.503,70.657
				c8.666,0,15.701-7.033,15.701-15.701v-31.4c0-8.676-7.035-15.701-15.701-15.701S62.802,14.88,62.802,23.556v31.4
				C62.802,63.624,69.837,70.657,78.503,70.657z"/>
		</g>
	</g>
</g>
<g>
</g>
<g>
</g>
<g>
</g>
<g>
</g>
<g>
</g>
<g>
</g>
<g>
</g>
<g>
</g>
<g>
</g>
<g>
</g>
<g>
</g>
<g>
</g>
<g>
</g>
<g>
</g>
<g>
</g>
</svg>
