<?xml version="1.0" encoding="iso-8859-1"?>
<!-- Generator: Adobe Illustrator 18.0.0, SVG Export Plug-In . SVG Version: 6.00 Build 0)  -->
<!DOCTYPE svg PUBLIC "-//W3C//DTD SVG 1.1//EN" "http://www.w3.org/Graphics/SVG/1.1/DTD/svg11.dtd">
<svg version="1.1" id="Capa_1" xmlns="http://www.w3.org/2000/svg" xmlns:xlink="http://www.w3.org/1999/xlink" x="0px" y="0px"
	 viewBox="0 0 297.004 297.004" style="enable-background:new 0 0 297.004 297.004;" xml:space="preserve">
<g>
	<path d="M261.767,95.168h-5.27l-48.274-48.283c1.45-3.336,2.259-7.013,2.259-10.876c0-15.096-12.278-27.377-27.37-27.377
		c-15.095,0-27.374,12.281-27.374,27.377c0,15.094,12.279,27.374,27.374,27.374c3.863,0,7.538-0.81,10.874-2.259l34.038,34.044
		H68.98l34.038-34.044c3.336,1.449,7.011,2.259,10.874,2.259c15.095,0,27.373-12.28,27.373-27.374
		c0-15.096-12.278-27.377-27.373-27.377c-15.092,0-27.37,12.281-27.37,27.377c0,3.863,0.809,7.54,2.259,10.876L40.507,95.168h-5.27
		C15.809,95.168,0,110.977,0,130.406v1.578c0,12.884,6.955,24.171,17.306,30.316V248.1c0,22.206,18.066,40.272,40.271,40.272
		h181.851c22.205,0,40.271-18.066,40.271-40.272v-85.799c10.35-6.145,17.306-17.433,17.306-30.316v-1.578
		C297.004,110.977,281.195,95.168,261.767,95.168z M183.111,43.246c-3.99,0-7.238-3.247-7.238-7.237
		c0-3.993,3.248-7.241,7.238-7.241c3.989,0,7.234,3.248,7.234,7.241C190.346,39.999,187.101,43.246,183.111,43.246z M113.893,28.768
		c3.99,0,7.237,3.248,7.237,7.241c0,3.99-3.247,7.237-7.237,7.237c-3.989,0-7.234-3.247-7.234-7.237
		C106.658,32.016,109.903,28.768,113.893,28.768z M20.136,130.406c0-8.328,6.774-15.102,15.102-15.102h226.529
		c8.327,0,15.102,6.773,15.102,15.102v1.578c0,8.327-6.774,15.102-15.102,15.102H35.237c-8.327,0-15.102-6.774-15.102-15.102
		V130.406z M239.427,268.236H57.576c-11.103,0-20.135-9.033-20.135-20.137v-80.877h222.121V248.1
		C259.563,259.203,250.53,268.236,239.427,268.236z"/>
	<path d="M79.285,181.699c-5.561,0-10.067,4.509-10.067,10.068v51.922c0,5.561,4.507,10.068,10.067,10.068
		c5.56,0,10.067-4.508,10.067-10.068v-51.922C89.353,186.208,84.845,181.699,79.285,181.699z"/>
	<path d="M148.502,181.699c-5.56,0-10.068,4.509-10.068,10.068v51.922c0,5.561,4.509,10.068,10.068,10.068
		c5.56,0,10.068-4.508,10.068-10.068v-51.922C158.57,186.208,154.062,181.699,148.502,181.699z"/>
	<path d="M217.72,181.699c-5.562,0-10.068,4.509-10.068,10.068v51.922c0,5.561,4.507,10.068,10.068,10.068
		c5.559,0,10.066-4.508,10.066-10.068v-51.922C227.786,186.208,223.279,181.699,217.72,181.699z"/>
</g>
<g>
</g>
<g>
</g>
<g>
</g>
<g>
</g>
<g>
</g>
<g>
</g>
<g>
</g>
<g>
</g>
<g>
</g>
<g>
</g>
<g>
</g>
<g>
</g>
<g>
</g>
<g>
</g>
<g>
</g>
</svg>
