<?xml version="1.0" encoding="iso-8859-1"?>
<!-- Generator: Adobe Illustrator 19.1.0, SVG Export Plug-In . SVG Version: 6.00 Build 0)  -->
<svg version="1.1" id="Capa_1" xmlns="http://www.w3.org/2000/svg" xmlns:xlink="http://www.w3.org/1999/xlink" x="0px" y="0px"
	 viewBox="0 0 373.878 373.878" style="enable-background:new 0 0 373.878 373.878;" xml:space="preserve">
<g>
	<g>
		<path style="fill:#231F20;" d="M287.343,373.878H90.346c-18.546,0-33.633-15.087-33.633-33.615L28.815,209.243
			c-10.534-5.223-17.469-15.899-17.469-27.792c0-17.399,14.152-31.533,31.533-31.533h288.102c17.381,0,31.551,14.134,31.551,31.533
			c0,10.182-4.923,19.499-13.128,25.375L320.746,342.38C320.976,358.79,305.889,373.878,287.343,373.878z M42.879,170.599
			c-5.982,0-10.852,4.87-10.852,10.852c0,4.711,3.406,8.893,8.293,10.129c3.811,0.971,6.741,4.041,7.535,7.888l29.31,138.66
			c0.229,9.264,6.035,15.052,13.164,15.052h196.997c7.147,0,12.934-5.788,12.934-12.934l29.804-142.083
			c0.653-3.123,2.7-5.77,5.541-7.164c3.829-1.853,6.211-5.541,6.211-9.564c0-5.982-4.87-10.852-10.852-10.852H42.879V170.599z"/>
		<path style="fill:#231F20;" d="M116.903,313.212c0,4.006-3.282,7.288-7.288,7.288h-1.994c-4.006,0-7.27-3.282-7.27-7.288v-85.176
			c0-4.006,3.282-7.27,7.27-7.27h2.012c4.006,0,7.288,3.282,7.288,7.27v85.176H116.903z"/>
		<path style="fill:#231F20;" d="M170.193,313.212c0,4.006-3.282,7.288-7.27,7.288h-2.029c-4.006,0-7.288-3.282-7.288-7.288v-85.176
			c0-4.006,3.282-7.27,7.288-7.27h2.012c4.006,0,7.27,3.282,7.27,7.27v85.176H170.193z"/>
		<path style="fill:#231F20;" d="M223.465,313.212c0,4.006-3.282,7.288-7.27,7.288h-2.012c-4.006,0-7.288-3.282-7.288-7.288v-85.176
			c0-4.006,3.282-7.27,7.288-7.27h2.012c4.006,0,7.27,3.282,7.27,7.27V313.212z"/>
		<path style="fill:#231F20;" d="M276.756,313.212c0,4.006-3.282,7.288-7.288,7.288h-2.012c-4.006,0-7.27-3.282-7.27-7.288v-85.176
			c0-4.006,3.282-7.27,7.27-7.27h2.012c4.006,0,7.288,3.282,7.288,7.27V313.212z"/>
		<path style="fill:#231F20;" d="M187.151,0C120.203,0,65.924,54.278,65.924,121.226h21.934c0-54.843,44.45-99.292,99.292-99.292
			s99.292,44.45,99.292,99.292h21.934C308.359,54.278,254.098,0,187.151,0z"/>
	</g>
	<g>
	</g>
	<g>
	</g>
	<g>
	</g>
	<g>
	</g>
	<g>
	</g>
	<g>
	</g>
	<g>
	</g>
	<g>
	</g>
	<g>
	</g>
	<g>
	</g>
	<g>
	</g>
	<g>
	</g>
	<g>
	</g>
	<g>
	</g>
	<g>
	</g>
</g>
<g>
</g>
<g>
</g>
<g>
</g>
<g>
</g>
<g>
</g>
<g>
</g>
<g>
</g>
<g>
</g>
<g>
</g>
<g>
</g>
<g>
</g>
<g>
</g>
<g>
</g>
<g>
</g>
<g>
</g>
</svg>
