<?xml version="1.0" encoding="iso-8859-1"?>
<!-- Generator: Adobe Illustrator 19.1.0, SVG Export Plug-In . SVG Version: 6.00 Build 0)  -->
<svg version="1.1" id="Capa_1" xmlns="http://www.w3.org/2000/svg" xmlns:xlink="http://www.w3.org/1999/xlink" x="0px" y="0px"
	 viewBox="0 0 360.83 360.83" style="enable-background:new 0 0 360.83 360.83;" xml:space="preserve">
<g>
	<g id="Tag_2_">
		<g>
			<path d="M245.039,84.238c-8.866,8.866-8.866,23.219,0,32.063c8.866,8.866,23.219,8.866,32.063,0
				c8.866-8.866,8.866-23.219,0-32.063C268.258,75.395,253.905,75.395,245.039,84.238z M340.751,20.113L208.532,0L80.259,128.273
				l-10.68,10.68L0.034,208.498L152.343,360.83l64.216-64.216l0,0l16.031-16.031l128.205-128.205L340.751,20.113z M152.411,328.699
				L32.165,208.43l48.094-48.094l120.246,120.246L152.411,328.699z M216.559,264.551L96.29,144.305L216.536,24.058l100.088,20.068
				l20.158,100.179L216.559,264.551z"/>
		</g>
	</g>
</g>
<g>
</g>
<g>
</g>
<g>
</g>
<g>
</g>
<g>
</g>
<g>
</g>
<g>
</g>
<g>
</g>
<g>
</g>
<g>
</g>
<g>
</g>
<g>
</g>
<g>
</g>
<g>
</g>
<g>
</g>
</svg>
