<?xml version="1.0" encoding="iso-8859-1"?>
<!-- Generator: Adobe Illustrator 18.0.0, SVG Export Plug-In . SVG Version: 6.00 Build 0)  -->
<!DOCTYPE svg PUBLIC "-//W3C//DTD SVG 1.1//EN" "http://www.w3.org/Graphics/SVG/1.1/DTD/svg11.dtd">
<svg version="1.1" id="Capa_1" xmlns="http://www.w3.org/2000/svg" xmlns:xlink="http://www.w3.org/1999/xlink" x="0px" y="0px"
	 viewBox="0 0 296.514 296.514" style="enable-background:new 0 0 296.514 296.514;" xml:space="preserve">
<g>
	<path d="M209.521,9.728c-23.354,0-45.25,9.378-61.264,25.251c-16.013-15.873-37.91-25.251-61.264-25.251
		C39.025,9.728,0,48.753,0,96.721c0,38.814,14.157,73.228,44.554,108.3c24.373,28.122,89.748,72.353,92.52,74.222l11.184,7.543
		l11.184-7.543c2.771-1.869,68.147-46.1,92.52-74.222c30.396-35.071,44.554-69.484,44.554-108.3
		C296.514,48.753,257.488,9.728,209.521,9.728z M146.636,221.162c-40.825,0-73.92-33.095-73.92-73.921
		c0-40.825,33.095-73.92,73.92-73.92s73.92,33.095,73.92,73.92C220.556,188.066,187.461,221.162,146.636,221.162z"/>
	<rect x="102.098" y="127.242" width="89.076" height="40"/>
</g>
<g>
</g>
<g>
</g>
<g>
</g>
<g>
</g>
<g>
</g>
<g>
</g>
<g>
</g>
<g>
</g>
<g>
</g>
<g>
</g>
<g>
</g>
<g>
</g>
<g>
</g>
<g>
</g>
<g>
</g>
</svg>
