<?xml version='1.0' encoding='iso-8859-1'?>
<svg version="1.1" xmlns="http://www.w3.org/2000/svg" viewBox="0 0 463 463" xmlns:xlink="http://www.w3.org/1999/xlink" enable-background="new 0 0 463 463">
  <g>
    <path d="m439.5,367.362h-8.5v-8.5c0-12.958-10.542-23.5-23.5-23.5h-112c-12.958,0-23.5,10.542-23.5,23.5v8.5h-8.5c-12.958,0-23.5,10.542-23.5,23.5v16c0,4.143 3.358,7.5 7.5,7.5h208c4.142,0 7.5-3.357 7.5-7.5v-16c0-12.958-10.542-23.5-23.5-23.5zm-152.5-8.5c0-4.687 3.813-8.5 8.5-8.5h112c4.687,0 8.5,3.813 8.5,8.5v8.5h-129v-8.5zm161,40.5h-193v-8.5c0-4.687 3.813-8.5 8.5-8.5h176c4.687,0 8.5,3.813 8.5,8.5v8.5z"/>
    <path d="m256.707,236.187l-.354,.354c-9.163,9.163-9.163,24.071 0,33.234 4.582,4.581 10.599,6.871 16.617,6.871 6.018,0 12.036-2.29 16.617-6.871l45.255-45.255c4.438-4.438 6.883-10.34 6.883-16.617s-2.445-12.179-6.883-16.616c-4.439-4.439-10.34-6.884-16.617-6.884-6.277,0-12.179,2.444-16.617,6.883l-.353,.353-13.396-13.396c1.497-5.241 0.192-11.121-3.928-15.241l-56.569-56.569c-4.12-4.12-9.999-5.424-15.24-3.927l-13.397-13.396 .353-.354c4.438-4.438 6.883-10.34 6.883-16.617s-2.445-12.179-6.883-16.616c-4.438-4.439-10.34-6.884-16.617-6.884s-12.179,2.444-16.617,6.883l-45.255,45.255c-4.438,4.438-6.883,10.34-6.883,16.617 0,6.276 2.444,12.178 6.883,16.616 4.438,4.439 10.34,6.884 16.617,6.884s12.179-2.444 16.617-6.883l.353-.353 13.391,13.391c-0.394,1.377-0.607,2.814-0.607,4.285 0,4.141 1.612,8.033 4.54,10.961l6.01,6.01-28.638,28.638c-4.961,4.961-7.212,11.607-6.8,18.113l-135.189,135.189c-4.438,4.439-6.883,10.34-6.883,16.617s2.444,12.179 6.883,16.618c4.581,4.581 10.599,6.871 16.617,6.871s12.036-2.29 16.617-6.871l135.19-135.19c0.499,0.031 0.997,0.071 1.497,0.071 6.018,0 12.036-2.29 16.617-6.871l28.638-28.638 6.01,6.01c2.928,2.928 6.82,4.54 10.96,4.54 1.472,0 2.909-0.213 4.286-0.607l13.392,13.392zm61.518-36.785c2.27,0 4.404,0.884 6.01,2.49 1.605,1.605 2.49,3.739 2.49,6.01s-0.884,4.404-2.49,6.01l-45.255,45.255c-3.314,3.314-8.707,3.314-12.021,0-3.314-3.313-3.314-8.706 0-12.02l5.657-5.657h0.001l39.598-39.598c1.605-1.606 3.74-2.49 6.01-2.49zm-50.911,26.178l-12.021-12.021 23.334-23.334 12.021,12.02-23.334,23.335zm6.01-51.972c0.195,0.194 0.195,0.512 0,0.706l-33.936,33.936c-0.002,0.002-0.003,0.003-0.005,0.005-0.001,0.001-0.001,0.001-0.002,0.002-0.037,0.037-0.146,0.146-0.352,0.146-0.207,0-0.317-0.11-0.354-0.146 0,0 0,0 0-0.001l-11.313-11.313c0,0-0.001-0.001-0.001-0.001-0.001,0-0.001-0.001-0.001-0.001l-45.255-45.254c-0.036-0.036-0.146-0.146-0.146-0.354 0-0.206 0.11-0.316 0.146-0.353l33.936-33.937c0.002-0.002 0.003-0.003 0.005-0.005 0,0 0,0 0.001-0.001 0.098-0.097 0.225-0.146 0.353-0.146s0.256,0.049 0.354,0.146l56.57,56.571zm-136.118-47.715c-2.27,0-4.404-0.884-6.01-2.489v-0.001c-1.605-1.605-2.49-3.739-2.49-6.01s0.884-4.404 2.49-6.01l45.255-45.256c1.605-1.605 3.74-2.489 6.01-2.489 2.271,0 4.405,0.884 6.011,2.49 3.314,3.313 3.314,8.706 0,12.02l-5.657,5.657s-0.001,0.001-0.001,0.001l-39.598,39.598c-1.606,1.605-3.74,2.489-6.01,2.489zm50.911-26.178l12.02,12.02-23.334,23.335-12.021-12.021 23.335-23.334zm-158.607,273.158c-3.314,3.313-8.706,3.314-12.02,0.001-1.606-1.606-2.49-3.741-2.49-6.012s0.884-4.404 2.49-6.01l131.047-131.047c0.116,0.121 0.216,0.252 0.336,0.372l11.313,11.313c0.119,0.119 0.25,0.219 0.371,0.335l-131.047,131.048zm153.304-141.99c-3.314,3.314-8.707,3.314-12.021,0l-11.313-11.313c-3.314-3.314-3.314-8.708 0-12.021l28.638-28.638 23.334,23.334-28.638,28.638z"/>
  </g>
</svg>
