<?xml version="1.0" encoding="utf-8"?>
<!-- Generator: Adobe Illustrator 16.0.0, SVG Export Plug-In . SVG Version: 6.00 Build 0)  -->
<!DOCTYPE svg PUBLIC "-//W3C//DTD SVG 1.1 Tiny//EN" "http://www.w3.org/Graphics/SVG/1.1/DTD/svg11-tiny.dtd">
<svg version="1.1" baseProfile="tiny" id="Layer_1" xmlns="http://www.w3.org/2000/svg" xmlns:xlink="http://www.w3.org/1999/xlink"
	 x="0px" y="0px" width="24px" height="24px" viewBox="0 0 24 24" xml:space="preserve">
<g>
	<path d="M23.258,10.943L21.84,9.526c-0.156-0.156-0.41-0.156-0.566,0l-0.612,0.612l-6.817-6.817l0.597-0.597
		c0.155-0.156,0.156-0.409,0-0.565l-1.417-1.42c-0.075-0.075-0.177-0.117-0.283-0.117s-0.208,0.042-0.283,0.117l-6.56,6.561
		C5.823,7.374,5.78,7.476,5.78,7.582c0,0.106,0.043,0.208,0.118,0.283l1.419,1.417c0.156,0.155,0.408,0.155,0.564,0L8.42,8.746
		l3.136,3.136l-9.054,9.054l-0.461-0.461c-0.156-0.156-0.409-0.156-0.565,0c-0.157,0.156-0.157,0.41-0.001,0.566l1.487,1.489
		c0.078,0.078,0.181,0.117,0.283,0.117s0.204-0.039,0.282-0.117c0.157-0.156,0.157-0.41,0.001-0.566l-0.461-0.462l9.054-9.054
		l3.113,3.114L14.699,16.1c-0.156,0.156-0.155,0.409,0,0.565l1.418,1.418c0.075,0.075,0.177,0.117,0.283,0.117
		s0.208-0.042,0.283-0.117l6.574-6.574c0.074-0.075,0.117-0.177,0.117-0.283S23.332,11.018,23.258,10.943z M16.4,17.234
		l-0.853-0.853l0.535-0.538c0.156-0.156,0.155-0.409,0-0.565l-3.675-3.675c-0.001-0.001-0.002-0.003-0.003-0.004
		s-0.003-0.001-0.004-0.003L8.703,7.898c-0.156-0.156-0.409-0.156-0.565,0L7.6,8.434L6.746,7.582l5.994-5.995l0.852,0.854
		l-0.597,0.597c-0.156,0.156-0.156,0.409,0,0.565l7.383,7.383c0.15,0.15,0.416,0.15,0.566,0l0.612-0.613l0.853,0.852L16.4,17.234z"
		/>
	<path d="M1.309,21.208c-0.156-0.156-0.41-0.156-0.566,0s-0.156,0.409,0,0.565l1.488,1.488c0.078,0.078,0.181,0.117,0.283,0.117
		s0.205-0.039,0.283-0.117c0.156-0.156,0.156-0.409,0-0.565L1.309,21.208z"/>
</g>
</svg>
