<?xml version="1.0" encoding="iso-8859-1"?>
<!-- Generator: Adobe Illustrator 18.0.0, SVG Export Plug-In . SVG Version: 6.00 Build 0)  -->
<!DOCTYPE svg PUBLIC "-//W3C//DTD SVG 1.1//EN" "http://www.w3.org/Graphics/SVG/1.1/DTD/svg11.dtd">
<svg version="1.1" id="Capa_1" xmlns="http://www.w3.org/2000/svg" xmlns:xlink="http://www.w3.org/1999/xlink" x="0px" y="0px"
	 viewBox="0 0 512 512" style="enable-background:new 0 0 512 512;" xml:space="preserve">
<g>
	<path d="M495.969,214.768l-24.695-14.225c-9.711-5.598-20.727-8.543-31.945-8.543H368c-8.836,0-16-7.164-16-16V43.84
		C352,28.465,339.531,16,324.156,16h-0.094c-11.977,0-22.617,7.668-26.406,19.035l-30.719,80.355
		c-7.117,18.611-19.844,34.547-36.422,45.598L160,208v240h14.273c11.602,0,22.977,3.152,32.93,9.121l49.594,29.758
		c9.953,5.969,21.328,9.121,32.93,9.121h136.938c13.852,0,27.32-4.492,38.398-12.801l34.141-25.6
		C507.258,451.557,512,442.072,512,432V242.496C512,231.053,505.891,220.48,495.969,214.768z"/>
	<path d="M96,176H0v304h96c17.672,0,32-14.328,32-32V208C128,190.326,113.672,176,96,176z M64,448c-17.672,0-32-14.328-32-32
		s14.328-32,32-32s32,14.328,32,32S81.672,448,64,448z"/>
</g>
<g>
</g>
<g>
</g>
<g>
</g>
<g>
</g>
<g>
</g>
<g>
</g>
<g>
</g>
<g>
</g>
<g>
</g>
<g>
</g>
<g>
</g>
<g>
</g>
<g>
</g>
<g>
</g>
<g>
</g>
</svg>
