<?xml version="1.0" encoding="iso-8859-1"?>
<!-- Generator: Adobe Illustrator 18.0.0, SVG Export Plug-In . SVG Version: 6.00 Build 0)  -->
<!DOCTYPE svg PUBLIC "-//W3C//DTD SVG 1.1//EN" "http://www.w3.org/Graphics/SVG/1.1/DTD/svg11.dtd">
<svg version="1.1" id="Capa_1" xmlns="http://www.w3.org/2000/svg" xmlns:xlink="http://www.w3.org/1999/xlink" x="0px" y="0px"
	 viewBox="0 0 281.129 281.129" style="enable-background:new 0 0 281.129 281.129;" xml:space="preserve">
<g>
	<path d="M274.979,185.44l-68.325-68.325c-3.516-3.515-9.213-3.515-12.729,0l-32.041,32.041l-29.912-29.912l32.041-32.041
		c3.515-3.515,3.515-9.213,0-12.728L95.688,6.15C91.723,2.184,86.449,0,80.84,0c-5.61,0-10.884,2.185-14.85,6.151L6.15,65.99
		c-8.188,8.188-8.188,21.51,0,29.698l68.325,68.325c1.758,1.757,4.061,2.636,6.364,2.636s4.606-0.879,6.364-2.636l32.041-32.041
		l29.912,29.912l-32.041,32.041c-3.515,3.515-3.515,9.213,0,12.728l68.324,68.325l0.001,0c3.966,3.966,9.239,6.15,14.849,6.15
		c5.61,0,10.884-2.185,14.85-6.151l59.84-59.839C283.166,206.951,283.166,193.628,274.979,185.44z M95.151,82.423
		c0.263-1.181,0.413-2.405,0.413-3.665c0-9.282-7.524-16.807-16.807-16.807c-9.282,0-16.806,7.525-16.806,16.807
		c0,9.282,7.524,16.807,16.806,16.807c1.261,0,2.484-0.15,3.666-0.413l24.093,24.093L80.84,144.921l-61.961-61.96
		c-1.17-1.17-1.17-3.073,0-4.243l59.84-59.839C79.482,18.114,80.375,18,80.84,18c0.464,0,1.357,0.114,2.121,0.878l61.961,61.961
		l-25.677,25.677L95.151,82.423z M262.25,202.411l-59.84,59.839c-0.764,0.764-1.656,0.878-2.121,0.878
		c-0.464,0-1.356-0.114-2.121-0.878l-61.961-61.961l25.677-25.677l24.093,24.093c-0.263,1.181-0.413,2.405-0.413,3.665
		c0,9.282,7.524,16.807,16.807,16.807c9.282,0,16.806-7.525,16.806-16.807s-7.524-16.806-16.806-16.806
		c-1.261,0-2.484,0.15-3.666,0.413l-24.093-24.093l25.677-25.677l61.961,61.96C263.42,199.338,263.42,201.241,262.25,202.411z"/>
</g>
<g>
</g>
<g>
</g>
<g>
</g>
<g>
</g>
<g>
</g>
<g>
</g>
<g>
</g>
<g>
</g>
<g>
</g>
<g>
</g>
<g>
</g>
<g>
</g>
<g>
</g>
<g>
</g>
<g>
</g>
</svg>
