<?xml version="1.0" encoding="iso-8859-1"?>
<!-- Generator: Adobe Illustrator 16.0.0, SVG Export Plug-In . SVG Version: 6.00 Build 0)  -->
<!DOCTYPE svg PUBLIC "-//W3C//DTD SVG 1.1//EN" "http://www.w3.org/Graphics/SVG/1.1/DTD/svg11.dtd">
<svg version="1.1" id="Capa_1" xmlns="http://www.w3.org/2000/svg" xmlns:xlink="http://www.w3.org/1999/xlink" x="0px" y="0px"
	 width="44.889px" height="44.888px" viewBox="0 0 44.889 44.888" style="enable-background:new 0 0 44.889 44.888;"
	 xml:space="preserve">
<g>
	<g>
		<path d="M39.894,20.308h-7.774c-2.802,0-5.114,2.167-5.114,4.958v17.574c0,1.064,0.909,2.019,1.979,2.019h14.046
			c1.069,0,1.859-0.954,1.859-2.019V25.267C44.889,22.474,42.694,20.308,39.894,20.308z M28.825,27.14
			c-0.411,0-0.747-0.334-0.747-0.746c0-3.838,2.706-4.938,4.137-4.984c0.43-0.025,0.757,0.31,0.77,0.723
			c0.014,0.41-0.308,0.754-0.718,0.77c-0.28,0.013-2.695,0.225-2.695,3.492C29.572,26.806,29.238,27.14,28.825,27.14z M42.776,39.64
			c0,0.887-0.718,1.604-1.604,1.604h-10.36c-0.886,0-1.603-0.718-1.603-1.604v-9.467c0-0.886,0.717-1.604,1.603-1.604h10.36
			c0.886,0,1.604,0.718,1.604,1.604V39.64z"/>
		<path d="M43.434,13.875c0-1.347-1.092-2.438-2.439-2.438H30.897c-1.347,0-2.438,1.092-2.438,2.438v1.789
			c0,1.347,1.092,2.438,2.438,2.438h10.097c1.348,0,2.439-1.092,2.439-2.438V13.875z"/>
		<path d="M37.718,36.606c0.047-0.075,0.094-0.153,0.143-0.235c0.913-1.542,1.828-3.783,1.452-4.005
			c-0.322-0.19-1.485,1.159-2.386,2.519c-0.035-2.159-0.455-4.853-0.969-4.853s-0.935,2.693-0.969,4.853
			c-0.9-1.359-2.064-2.709-2.387-2.519c-0.376,0.222,0.54,2.463,1.453,4.005c0.048,0.082,0.096,0.16,0.143,0.235
			c-1.146-0.449-2.511-0.79-2.625-0.529c-0.128,0.293,1.373,1.235,2.576,1.763c0.112,0.049,0.217,0.094,0.316,0.131
			c-0.621,0.221-1.226,0.521-1.185,0.666c0.051,0.18,1.053,0.049,1.785-0.157c0.237-0.067,0.435-0.134,0.527-0.199v1.202
			c0,0.18,0.172,0.326,0.352,0.326c0.182,0,0.353-0.146,0.353-0.326V38.28c0.094,0.065,0.302,0.132,0.539,0.199
			c0.732,0.207,1.75,0.337,1.801,0.157c0.041-0.145-0.565-0.445-1.187-0.666c0.101-0.039,0.204-0.082,0.316-0.131
			c1.202-0.526,2.704-1.469,2.575-1.763C40.229,35.817,38.863,36.157,37.718,36.606z"/>
		<circle cx="13.359" cy="4.54" r="4.509"/>
		<path d="M26.053,18.862c0,0-6.896-5.837-9.208-7.851c-0.594-0.517-1.347-0.843-2.197-0.843h-1.006h-0.528h-1.005
			c-0.85,0-1.603,0.326-2.197,0.843c-2.313,2.013-9.208,7.856-9.208,7.856c-0.845,0.723-0.942,1.992-0.22,2.837
			c0.399,0.466,0.965,0.703,1.533,0.703c0.463,0,0.92-0.159,1.3-0.484l5.568-4.768v25.583c0,1.126,0.929,2.036,2.061,2.014
			c1.097-0.022,1.976-0.947,1.976-2.045c0,0-0.003-10.652,0-14.136c0-0.146,0.073-0.501,0.457-0.501
			c0.384,0,0.483,0.352,0.482,0.501c-0.004,3.608,0,14.136,0,14.136c0,1.098,0.856,2.022,1.953,2.045
			c1.131,0.022,2.037-0.888,2.037-2.014V17.156l5.578,4.767c0.38,0.325,0.848,0.483,1.312,0.483c0.568,0,1.135-0.238,1.533-0.705
			C26.994,20.857,26.897,19.585,26.053,18.862z"/>
	</g>
</g>
<g>
</g>
<g>
</g>
<g>
</g>
<g>
</g>
<g>
</g>
<g>
</g>
<g>
</g>
<g>
</g>
<g>
</g>
<g>
</g>
<g>
</g>
<g>
</g>
<g>
</g>
<g>
</g>
<g>
</g>
</svg>
