<?xml version="1.0" encoding="iso-8859-1"?>
<!-- Generator: Adobe Illustrator 16.0.0, SVG Export Plug-In . SVG Version: 6.00 Build 0)  -->
<!DOCTYPE svg PUBLIC "-//W3C//DTD SVG 1.1//EN" "http://www.w3.org/Graphics/SVG/1.1/DTD/svg11.dtd">
<svg version="1.1" id="Capa_1" xmlns="http://www.w3.org/2000/svg" xmlns:xlink="http://www.w3.org/1999/xlink" x="0px" y="0px"
	 width="576.932px" height="576.932px" viewBox="0 0 576.932 576.932" style="enable-background:new 0 0 576.932 576.932;"
	 xml:space="preserve">
<g>
	<g>
		<path d="M426.553,218.062v-79.944C426.553,61.963,364.601,0,288.435,0c-57.283,0-107.779,34.472-128.63,87.828
			c-7.723,19.755,2.026,42.022,21.769,49.748c19.764,7.705,42.041-2.036,49.746-21.789c9.263-23.681,31.689-38.982,57.115-38.982
			c33.808,0,61.315,27.507,61.315,61.316v52.559c-4.405-0.367-8.812-0.675-13.312-0.675h-95.948
			c-87.808-0.002-159.004,71.184-159.004,159.005v162.924c0,35.9,29.103,64.998,65.008,64.998h283.944
			c35.908,0,65.009-29.1,65.009-64.998V349.01C495.444,294.668,468.141,246.75,426.553,218.062z M323.406,423.119v49.502
			c0,19.303-15.638,34.951-34.951,34.951c-19.316,0-34.971-15.656-34.971-34.961v-49.502
			c-14.213-10.679-23.534-27.498-23.534-46.634c0-32.309,26.216-58.502,58.505-58.502c32.285,0,58.503,26.193,58.503,58.502
			C346.959,395.621,337.619,412.451,323.406,423.119z"/>
	</g>
</g>
<g>
</g>
<g>
</g>
<g>
</g>
<g>
</g>
<g>
</g>
<g>
</g>
<g>
</g>
<g>
</g>
<g>
</g>
<g>
</g>
<g>
</g>
<g>
</g>
<g>
</g>
<g>
</g>
<g>
</g>
</svg>
