<?xml version="1.0" encoding="iso-8859-1"?>
<!-- Generator: Adobe Illustrator 16.0.0, SVG Export Plug-In . SVG Version: 6.00 Build 0)  -->
<!DOCTYPE svg PUBLIC "-//W3C//DTD SVG 1.1//EN" "http://www.w3.org/Graphics/SVG/1.1/DTD/svg11.dtd">
<svg version="1.1" id="Capa_1" xmlns="http://www.w3.org/2000/svg" xmlns:xlink="http://www.w3.org/1999/xlink" x="0px" y="0px"
	 width="46.157px" height="46.157px" viewBox="0 0 46.157 46.157" style="enable-background:new 0 0 46.157 46.157;"
	 xml:space="preserve">
<g>
	<g>
		<path d="M32.364,26.903l-1.15-0.289l0.003,0.004l-2.558,5.306c-0.139,0.291-0.422,0.482-0.741,0.508
			c-0.32,0.023-0.63-0.125-0.812-0.39l-2.051-2.997c-0.109-0.16-0.285-0.263-0.478-0.279c-0.193-0.016-0.383,0.057-0.518,0.195
			l-0.501,0.52c-0.121,0.126-0.289,0.197-0.463,0.197c-0.174,0-0.342-0.071-0.463-0.197L22.13,28.96
			c-0.134-0.14-0.324-0.211-0.518-0.194c-0.193,0.017-0.368,0.119-0.478,0.277l-2.051,2.998c-0.181,0.266-0.49,0.413-0.811,0.389
			c-0.32-0.023-0.603-0.217-0.742-0.506l-2.557-5.307l0.003-0.004l-1.167,0.289c-4.794,1.199-8.172,5.508-8.172,10.449v6.49
			c0.003,1.279,1.068,2.315,2.346,2.315h30.225c1.276,0,2.312-1.036,2.312-2.313v-6.489C40.52,32.411,37.159,28.104,32.364,26.903z
			 M23.095,44.311c-0.543,0-0.983-0.44-0.983-0.983s0.44-0.983,0.983-0.983s0.984,0.44,0.984,0.983S23.639,44.311,23.095,44.311z
			 M23.095,39.553c-0.543,0-0.983-0.44-0.983-0.983s0.44-0.983,0.983-0.983s0.984,0.44,0.984,0.983S23.639,39.553,23.095,39.553z
			 M23.095,34.793c-0.543,0-0.983-0.439-0.983-0.984c0-0.543,0.44-0.983,0.983-0.983s0.984,0.44,0.984,0.983
			S23.639,34.793,23.095,34.793z"/>
		<path d="M12.384,12.251c-0.889,0.411-1.554,1.362-1.376,3.521c0.188,2.287,1.338,3.318,2.586,3.585
			c1.768,4.328,5.273,7.902,9.422,7.902c4.139,0,7.639-3.557,9.409-7.872c1.313-0.208,2.562-1.225,2.758-3.616
			c0.149-1.814-0.297-2.776-0.97-3.281c1.518-7.804-3.881-9.366-3.881-9.366S25.291-2.918,16.4,1.803
			c-1.743,0.926-3.514,2.851-4.685,5.218c-0.167,0.336-0.125,0.739,0.106,1.034c0.232,0.295,0.613,0.432,0.98,0.35
			C11.795,10.606,12.389,12.116,12.384,12.251z M14.4,12.165c6.732-0.031,10.795-2.837,13.065-5.289
			c2.377,2.37,3.564,5.391,4.145,7.543c-0.455,5.139-4.115,10.826-8.593,10.826c-4.787,0-8.641-6.5-8.641-11.882
			C14.376,12.947,14.384,12.549,14.4,12.165z"/>
	</g>
</g>
<g>
</g>
<g>
</g>
<g>
</g>
<g>
</g>
<g>
</g>
<g>
</g>
<g>
</g>
<g>
</g>
<g>
</g>
<g>
</g>
<g>
</g>
<g>
</g>
<g>
</g>
<g>
</g>
<g>
</g>
</svg>
