<?xml version="1.0" encoding="iso-8859-1"?>
<!-- Generator: Adobe Illustrator 16.0.0, SVG Export Plug-In . SVG Version: 6.00 Build 0)  -->
<!DOCTYPE svg PUBLIC "-//W3C//DTD SVG 1.1//EN" "http://www.w3.org/Graphics/SVG/1.1/DTD/svg11.dtd">
<svg version="1.1" id="Capa_1" xmlns="http://www.w3.org/2000/svg" xmlns:xlink="http://www.w3.org/1999/xlink" x="0px" y="0px"
	 width="113.348px" height="113.348px" viewBox="0 0 113.348 113.348" style="enable-background:new 0 0 113.348 113.348;"
	 xml:space="preserve">
<g>
	<path d="M14.67,17.056h22.549c-0.779,4.696-4.453,8.594-9.412,9.41C21.58,27.491,15.701,23.278,14.67,17.056z M7.756,16.195h36.375
		c0.512,0,0.928-0.415,0.928-0.927c0-0.513-0.416-0.927-0.928-0.927H38.07V9.775c0-4.096-1.711-6.208-5.809-6.208H19.936
		c-4.098,0-5.404,2.112-5.404,6.208v4.566H7.757c-0.512,0-0.926,0.414-0.926,0.927C6.83,15.779,7.244,16.195,7.756,16.195z
		 M46.842,72.892h2.006v24.191h-6.033V72.892h2.186v-1.547c-1.307-0.188-2.42-1.123-2.779-2.432l-1.924-6.984
		c1.668,14.886,1.652,30.064,1.652,30.064h-6.248c-0.053,7.646-0.096,14.158-0.096,14.158c-0.012,2.018-1.66,3.643-3.68,3.628
		c-1.887-0.013-3.434-1.474-3.611-3.312c0,0-0.629-6.701-1.357-14.476h-0.582l-1.322-15.405l-0.363,15.405h-1.17
		c-0.729,7.774-1.355,14.476-1.355,14.476c-0.188,2.01-1.969,3.484-3.979,3.297c-1.881-0.178-3.295-1.766-3.314-3.613
		c0,0-0.045-6.514-0.096-14.158H7.213c-0.268-4.574,1.076-18.6,2.385-30.668l-1.906,6.914c-0.445,1.629-2.049,2.701-3.758,2.441
		c-0.119-0.018-0.23-0.057-0.346-0.088v2.297h2.445v17.836H0V72.892h1.744v-3.518h0.004c-0.531-0.699-0.787-1.602-0.646-2.535
		L3.688,49.8c0.021-0.14,0.061-0.291,0.109-0.429l0.02-0.046l0.391-1.041l0.309-0.773L5.15,45.99
		c0.436-1.009,0.891-2.006,1.373-3.001c0.965-1.984,2.027-3.949,3.285-5.898c1.275-1.943,2.686-3.887,4.754-5.748
		c0.166-0.145,0.342-0.288,0.518-0.433l-2.783-7.774l1.947,0.684l-0.002-0.012l10.051,3.521l-0.006,0.592
		c0.285-0.021,0.572-0.042,0.861-0.042c0.016,0,0.031,0,0.047,0c0.818,0.003,1.613,0.099,2.381,0.271l-0.012-0.821l10.055-3.521
		l-2.785,7.775c0.174,0.144,0.354,0.287,0.518,0.432c2.068,1.861,3.48,3.807,4.756,5.75c1.258,1.947,2.318,3.912,3.285,5.898
		c0.48,0.994,0.938,1.991,1.371,2.999l0.635,1.522l0.307,0.773l0.393,1.037l0.016,0.047c0.053,0.139,0.092,0.289,0.111,0.43
		l2.588,17.038c0.23,1.535-0.617,2.973-1.969,3.576v1.807H46.842z M28.225,55.479c0-1.262-1.02-2.283-2.281-2.283
		c-1.26,0-2.281,1.021-2.281,2.283c0,1.26,1.021,2.28,2.281,2.28C27.205,57.759,28.225,56.737,28.225,55.479z M28.225,46.489
		c0-1.26-1.02-2.281-2.281-2.281c-1.26,0-2.281,1.021-2.281,2.281c0,1.26,1.021,2.281,2.281,2.281
		C27.205,48.771,28.225,47.75,28.225,46.489z M28.225,37.789c0-1.262-1.02-2.283-2.281-2.283c-1.26,0-2.281,1.021-2.281,2.283
		c0,1.262,1.021,2.281,2.281,2.281C27.205,40.07,28.225,39.05,28.225,37.789z M112.861,72.376h-9.521
		c0-6.109-4.949-11.057-11.054-11.057c-6.108,0-11.057,4.945-11.057,11.057h-29.85v-1.484h-0.848
		c0.682-1.068,0.984-2.37,0.789-3.682l-2.584-17.011c-0.039-0.287-0.117-0.588-0.193-0.783l-1.412-3.544
		c-0.15-0.354-0.313-0.711-0.473-1.068h4.625V32.522H39.199c-0.459-0.515-0.951-1.03-1.492-1.544l1.234-3.444h29.697
		c8.601,0,25,21.156,25,21.156s9.396,1.574,15.537,5.258C115.322,57.634,112.861,72.376,112.861,72.376z M83.994,44.804
		c0,0-9.674-12.282-14.281-12.282c-4.609,0-12.895,0-12.895,0v12.282H83.994z M109.33,56.013h-5.094v3.229h5.094V56.013z
		 M102.396,72.37c0,5.441-4.412,9.85-9.848,9.85c-5.434,0-9.842-4.407-9.842-9.85c0-5.436,4.408-9.842,9.842-9.842
		C97.984,62.528,102.396,66.937,102.396,72.37z M96.865,72.37c0-2.378-1.938-4.312-4.316-4.312s-4.316,1.936-4.316,4.312
		c0,2.383,1.938,4.322,4.316,4.322S96.865,74.753,96.865,72.37z M51.381,76.515h29.158V73.29H51.381V76.515z"/>
</g>
<g>
</g>
<g>
</g>
<g>
</g>
<g>
</g>
<g>
</g>
<g>
</g>
<g>
</g>
<g>
</g>
<g>
</g>
<g>
</g>
<g>
</g>
<g>
</g>
<g>
</g>
<g>
</g>
<g>
</g>
</svg>
