<?xml version="1.0" encoding="iso-8859-1"?>
<!-- Generator: Adobe Illustrator 17.1.0, SVG Export Plug-In . SVG Version: 6.00 Build 0)  -->
<!DOCTYPE svg PUBLIC "-//W3C//DTD SVG 1.1//EN" "http://www.w3.org/Graphics/SVG/1.1/DTD/svg11.dtd">
<svg version="1.1" id="Capa_1" xmlns="http://www.w3.org/2000/svg" xmlns:xlink="http://www.w3.org/1999/xlink" x="0px" y="0px"
	 viewBox="0 0 353.304 353.304" style="enable-background:new 0 0 353.304 353.304;" xml:space="preserve">
<g>
	<path d="M176.652,0c-19.763,0-35.841,16.078-35.841,35.841s16.078,35.841,35.841,35.841c19.762,0,35.84-16.078,35.84-35.841
		S196.415,0,176.652,0z"/>
	<path d="M176.652,93.874c-19.763,0-35.841,16.078-35.841,35.841s16.078,35.841,35.841,35.841c19.762,0,35.84-16.078,35.84-35.841
		S196.415,93.874,176.652,93.874z"/>
	<path d="M176.652,187.749c-19.763,0-35.841,16.078-35.841,35.841s16.078,35.841,35.841,35.841c19.762,0,35.84-16.078,35.84-35.841
		S196.415,187.749,176.652,187.749z"/>
	<path d="M176.652,281.623c-19.763,0-35.841,16.078-35.841,35.841s16.078,35.841,35.841,35.841c19.762,0,35.84-16.078,35.84-35.841
		S196.415,281.623,176.652,281.623z"/>
	<path d="M269.733,71.682c19.763,0,35.841-16.078,35.841-35.841S289.496,0,269.733,0s-35.841,16.078-35.841,35.841
		S249.97,71.682,269.733,71.682z"/>
	<path d="M269.733,93.874c-19.763,0-35.841,16.078-35.841,35.841s16.078,35.841,35.841,35.841s35.841-16.078,35.841-35.841
		S289.496,93.874,269.733,93.874z"/>
	<path d="M269.733,187.749c-19.763,0-35.841,16.078-35.841,35.841s16.078,35.841,35.841,35.841s35.841-16.078,35.841-35.841
		S289.496,187.749,269.733,187.749z"/>
	<path d="M83.571,0C63.809,0,47.73,16.078,47.73,35.841s16.078,35.841,35.841,35.841s35.841-16.078,35.841-35.841
		S103.334,0,83.571,0z"/>
	<path d="M83.571,93.874c-19.763,0-35.841,16.078-35.841,35.841s16.078,35.841,35.841,35.841s35.841-16.078,35.841-35.841
		S103.334,93.874,83.571,93.874z"/>
	<path d="M83.571,187.749c-19.763,0-35.841,16.078-35.841,35.841s16.078,35.841,35.841,35.841s35.841-16.078,35.841-35.841
		S103.334,187.749,83.571,187.749z"/>
</g>
<g>
</g>
<g>
</g>
<g>
</g>
<g>
</g>
<g>
</g>
<g>
</g>
<g>
</g>
<g>
</g>
<g>
</g>
<g>
</g>
<g>
</g>
<g>
</g>
<g>
</g>
<g>
</g>
<g>
</g>
</svg>
