<?xml version="1.0" encoding="iso-8859-1"?>
<!-- Generator: Adobe Illustrator 18.0.0, SVG Export Plug-In . SVG Version: 6.00 Build 0)  -->
<!DOCTYPE svg PUBLIC "-//W3C//DTD SVG 1.1//EN" "http://www.w3.org/Graphics/SVG/1.1/DTD/svg11.dtd">
<svg version="1.1" id="Capa_1" xmlns="http://www.w3.org/2000/svg" xmlns:xlink="http://www.w3.org/1999/xlink" x="0px" y="0px"
	 viewBox="0 0 475.48 475.48" style="enable-background:new 0 0 475.48 475.48;" xml:space="preserve">
<g>
	<path d="M474.041,238.838c-1.751-8.116-7.387-14.889-15.074-18.116c-7.653-3.213-16.391-2.501-23.371,1.907
		c-22.951,14.493-59.319,26.177-102.958,33.15c-6.156-39.38-9.673-82.237-10.693-130.323c-0.208-11.132-8.575-20.229-19.471-21.161
		c-12.434-1.046-24.942,1.183-37.04,3.338c-9.701,1.729-18.842,3.372-27.678,3.346c-9.169-0.015-18.142-1.648-27.641-3.377
		c-11.875-2.161-24.153-4.396-37.114-3.305c-10.885,0.932-19.251,10.029-19.459,21.142c-1.02,48.102-4.536,90.962-10.693,130.342
		c-43.645-6.974-80.012-18.657-102.955-33.152c-6.978-4.406-15.713-5.12-23.365-1.91c-7.69,3.225-13.332,9.997-15.094,18.133
		C0.483,243.305,0,247.803,0,252.22c0,32.879,25.451,63.338,71.664,85.767c44.487,21.592,103.467,33.483,166.076,33.483
		c62.612,0,121.594-11.891,166.08-33.483c46.211-22.429,71.66-52.888,71.66-85.767C475.48,247.751,474.996,243.247,474.041,238.838z
		 M237.73,125.978c10.171-0.002,20.413-1.811,30.334-3.578c4.428-0.789,8.762-1.56,13.009-2.166l-24.478,10.282
		c-11.628,4.886-26.074,4.886-37.703,0l-24.734-10.389c4.358,0.614,8.764,1.413,13.27,2.233
		C217.159,124.13,227.22,125.961,237.73,125.978z M168.539,125.737c0.001-0.034,0.005-0.067,0.006-0.101l44.538,18.708
		c7.607,3.197,16.133,4.794,24.662,4.794c8.527,0,17.056-1.598,24.661-4.794l44.534-18.707c0.001,0.039,0.007,0.078,0.007,0.117
		c1.212,57.175,5.901,107.14,14.334,152.738c0.017,1.266-0.947,3.068-2.679,4.989c-13.379,14.845-51.657,22.941-80.839,23.021
		c-29.224-0.08-67.501-8.176-80.88-23.022c-1.731-1.921-2.695-3.722-2.678-4.989C162.638,232.896,167.327,182.93,168.539,125.737z
		 M397.27,324.493c-42.485,20.621-99.141,31.977-159.53,31.977c-60.385,0-117.04-11.356-159.527-31.977
		C37.45,304.708,15,279.041,15,252.22c0-3.365,0.372-6.806,1.1-10.212c0.733-3.386,3.004-6.104,6.231-7.457
		c3.189-1.337,6.671-1.06,9.553,0.76c24.592,15.536,62.916,27.964,108.499,35.265c-0.331,1.869-0.659,3.741-1.003,5.595
		c-0.038,0.202-0.067,0.406-0.088,0.611c-0.398,3.932,0.396,10.028,6.448,16.744c14.749,16.366,52.573,27.872,92.023,27.98
		c39.409-0.108,77.233-11.614,91.982-27.979c6.052-6.716,6.847-12.812,6.449-16.744c-0.021-0.205-0.05-0.409-0.088-0.611
		c-0.344-1.854-0.672-3.727-1.003-5.596c45.575-7.3,83.9-19.727,108.501-35.263c2.884-1.821,6.368-2.098,9.555-0.76
		c3.223,1.353,5.489,4.069,6.22,7.455c0.73,3.373,1.1,6.809,1.1,10.213C460.48,279.042,438.032,304.709,397.27,324.493z"/>
	<path d="M199.202,257.969c1.156,2.001,3.169,3.359,5.458,3.678l16.762,2.34l10.407,13.346c1.421,1.823,3.604,2.888,5.915,2.888
		s4.493-1.066,5.915-2.888l10.407-13.346l16.762-2.34c2.289-0.319,4.303-1.677,5.458-3.678c1.156-2.001,1.324-4.424,0.456-6.566
		l-6.354-15.686l6.354-15.686c0.868-2.142,0.7-4.565-0.456-6.566s-3.169-3.359-5.458-3.678l-16.762-2.34l-10.407-13.346
		c-1.421-1.823-3.604-2.888-5.915-2.888s-4.493,1.066-5.915,2.888l-10.407,13.346l-16.762,2.34
		c-2.289,0.319-4.303,1.677-5.458,3.678s-1.324,4.424-0.456,6.566l6.354,15.686l-6.354,15.686
		C197.878,253.545,198.046,255.968,199.202,257.969z M220.144,232.901l-3.884-9.588l10.245-1.43c1.93-0.269,3.68-1.279,4.878-2.816
		l6.361-8.158l6.361,8.158c1.198,1.537,2.948,2.547,4.878,2.816l10.246,1.43l-3.884,9.588c-0.732,1.806-0.732,3.826,0,5.632
		l3.884,9.588l-10.246,1.43c-1.93,0.269-3.68,1.279-4.878,2.816l-6.361,8.158l-6.361-8.158c-1.198-1.537-2.948-2.547-4.878-2.816
		l-10.245-1.43l3.884-9.588C220.875,236.727,220.875,234.707,220.144,232.901z"/>
</g>
<g>
</g>
<g>
</g>
<g>
</g>
<g>
</g>
<g>
</g>
<g>
</g>
<g>
</g>
<g>
</g>
<g>
</g>
<g>
</g>
<g>
</g>
<g>
</g>
<g>
</g>
<g>
</g>
<g>
</g>
</svg>
