<?xml version="1.0" encoding="iso-8859-1"?>
<!-- Generator: Adobe Illustrator 16.0.0, SVG Export Plug-In . SVG Version: 6.00 Build 0)  -->
<!DOCTYPE svg PUBLIC "-//W3C//DTD SVG 1.1//EN" "http://www.w3.org/Graphics/SVG/1.1/DTD/svg11.dtd">
<svg version="1.1" id="Capa_1" xmlns="http://www.w3.org/2000/svg" xmlns:xlink="http://www.w3.org/1999/xlink" x="0px" y="0px"
	 width="612.003px" height="612.003px" viewBox="0 0 612.003 612.003" style="enable-background:new 0 0 612.003 612.003;"
	 xml:space="preserve">
<g>
	<g>
		<path d="M591.291,0H373.452c-5.547,0-10.353,2.217-14.424,6.289L5.826,359.12c-7.771,7.765-7.764,21.083,0,28.847l218.21,218.21
			c7.764,7.765,21.083,7.772,28.846,0l352.833-353.203c4.071-4.071,6.288-8.876,6.288-14.423V20.712
			C612.003,9.247,602.756,0,591.291,0z M570.95,230.416l-332.491,331.75L49.096,373.544L381.587,41.053H570.95V230.416z"/>
		<path d="M473.31,206.746c18.865,0,34.772-6.659,48.453-20.341c13.312-13.318,19.971-29.225,19.971-48.083
			c0-18.865-6.659-34.764-19.971-48.083c-12.947-12.94-29.217-19.599-48.453-19.599c-19.229,0-35.506,6.659-48.445,19.599
			c-12.948,12.948-19.607,29.217-19.607,48.454c0,18.857,6.659,34.764,19.607,47.711
			C438.546,200.086,454.452,206.746,473.31,206.746z M454.452,119.086c4.647-4.986,10.723-7.764,18.857-7.764
			c7.771,0,14.424,2.588,19.607,7.764c10.723,10.731,10.723,27.742,0,38.465c-5.547,5.547-12.206,8.505-19.607,8.505
			c-7.764,0-13.847-3.132-18.857-8.505c-5.357-5.736-8.506-11.835-8.506-18.857C445.946,131.292,449.103,124.83,454.452,119.086z"/>
	</g>
</g>
<g>
</g>
<g>
</g>
<g>
</g>
<g>
</g>
<g>
</g>
<g>
</g>
<g>
</g>
<g>
</g>
<g>
</g>
<g>
</g>
<g>
</g>
<g>
</g>
<g>
</g>
<g>
</g>
<g>
</g>
</svg>
