<?xml version="1.0" encoding="iso-8859-1"?>
<!-- Generator: Adobe Illustrator 16.0.0, SVG Export Plug-In . SVG Version: 6.00 Build 0)  -->
<!DOCTYPE svg PUBLIC "-//W3C//DTD SVG 1.1//EN" "http://www.w3.org/Graphics/SVG/1.1/DTD/svg11.dtd">
<svg version="1.1" id="Capa_1" xmlns="http://www.w3.org/2000/svg" xmlns:xlink="http://www.w3.org/1999/xlink" x="0px" y="0px"
	 width="896px" height="896px" viewBox="0 0 896 896" style="enable-background:new 0 0 896 896;" xml:space="preserve">
<g>
	<path d="M50,823.35h796c27.6,0,50-22.4,50-50v-432c0-27.6-22.4-50-50-50h-28.5v93.8c0,41.3-33.6,74.9-74.9,74.9h-236
		c-41.3,0-74.899-33.601-74.899-74.9v-93.8h-46.3l0.399,376.1l0,0l0,0c0,46.4-37.899,84.2-84.3,84.2h-0.1l0,0H162.8
		c-22.5,0-43.7-8.8-59.6-24.7c-15.9-15.899-24.6-37.1-24.6-59.6l-0.4-376H50c-27.6,0-50,22.4-50,50v432
		C0,801.05,22.4,823.35,50,823.35z M677.5,728.95c0,13.8-11.2,25-25,25H596c-13.8,0-25-11.2-25-25v-0.7c0-13.8,11.2-25,25-25h56.5
		c13.8,0,25,11.2,25,25V728.95z M818.3,728.95c0,13.8-11.2,25-25,25h-54.5c-13.8,0-25-11.2-25-25v-0.7c0-13.8,11.2-25,25-25h54.5
		c13.8,0,25,11.2,25,25V728.95z M430.6,550.65c0-13.8,11-25,24.5-25H794.2c13.5,0,24.5,11.2,24.5,25v67.3c0,13.8-11,25-24.5,25
		H455.1c-13.5,0-24.5-11.2-24.5-25V550.65L430.6,550.65z M430.2,728.15c0-13.8,11.2-25,25-25h54.5c13.8,0,25,11.2,25,25v0.7
		c0,13.8-11.2,25-25,25h-54.5c-13.8,0-25-11.2-25-25V728.15z"/>
	<path d="M112.9,667.35c0,27.6,22.3,50,50,50l138.7,0.1l0,0c27.601,0,50-22.399,50-50l-0.399-376.2l-0.2-95.6c0-27.6-22.3-50-50-50
		l-138.7-0.1l0,0c-27.6,0-50,22.4-50,50l0.1,96L112.9,667.35z"/>
	<path d="M506.6,429.15h236c24.301,0,44-19.7,44-44v-93.8v-168.7c0-27.6-22.399-50-50-50h-224c-27.6,0-50,22.4-50,50v168.8v93.8
		C462.6,409.45,482.3,429.15,506.6,429.15z M540.6,140.25h168c8.801,0,16,7.2,16,16c0,8.8-7.199,16-16,16h-168c-8.8,0-16-7.2-16-16
		C524.6,147.45,531.8,140.25,540.6,140.25z M540.6,236.85h168c8.801,0,16,7.2,16,16c0,8.8-7.199,16-16,16h-168c-8.8,0-16-7.2-16-16
		C524.6,244.05,531.8,236.85,540.6,236.85z"/>
</g>
<g>
</g>
<g>
</g>
<g>
</g>
<g>
</g>
<g>
</g>
<g>
</g>
<g>
</g>
<g>
</g>
<g>
</g>
<g>
</g>
<g>
</g>
<g>
</g>
<g>
</g>
<g>
</g>
<g>
</g>
</svg>
