<?xml version="1.0" encoding="iso-8859-1"?>
<!-- Generator: Adobe Illustrator 19.0.0, SVG Export Plug-In . SVG Version: 6.00 Build 0)  -->
<svg version="1.1" id="Capa_1" xmlns="http://www.w3.org/2000/svg" xmlns:xlink="http://www.w3.org/1999/xlink" x="0px" y="0px"
	 viewBox="0 0 539.077 539.077" style="enable-background:new 0 0 539.077 539.077;" xml:space="preserve">
<g>
	<g>
		<path d="M269.538,359.385c-12.382,0-22.462-10.068-22.462-22.462c0-12.393,10.079-22.462,22.462-22.462
			c12.393,0,22.462,10.068,22.462,22.462C292,349.316,281.932,359.385,269.538,359.385z"/>
		<path d="M269.538,426.769c-6.208,0-11.231-5.023-11.231-11.231v-67.385c0-6.208,5.023-11.231,11.231-11.231
			c6.208,0,11.231,5.023,11.231,11.231v67.385C280.769,421.746,275.746,426.769,269.538,426.769z"/>
		<path d="M460.462,539.077H78.615c-6.208,0-11.231-5.023-11.231-11.231V213.385c0-6.208,5.023-11.231,11.231-11.231h303.231
			v-67.385c0-61.923-50.385-112.308-112.308-112.308S157.231,72.846,157.231,134.769h-22.462C134.769,60.453,195.222,0,269.538,0
			s134.769,60.453,134.769,134.769v67.385h56.154c6.208,0,11.231,5.023,11.231,11.231v314.462
			C471.692,534.054,466.669,539.077,460.462,539.077z M89.846,516.615h359.385v-292H89.846V516.615z"/>
	</g>
</g>
<g>
</g>
<g>
</g>
<g>
</g>
<g>
</g>
<g>
</g>
<g>
</g>
<g>
</g>
<g>
</g>
<g>
</g>
<g>
</g>
<g>
</g>
<g>
</g>
<g>
</g>
<g>
</g>
<g>
</g>
</svg>
