<?xml version="1.0" encoding="iso-8859-1"?>
<!-- Generator: Adobe Illustrator 19.1.0, SVG Export Plug-In . SVG Version: 6.00 Build 0)  -->
<svg version="1.1" id="Capa_1" xmlns="http://www.w3.org/2000/svg" xmlns:xlink="http://www.w3.org/1999/xlink" x="0px" y="0px"
	 viewBox="0 0 340.127 340.127" style="enable-background:new 0 0 340.127 340.127;" xml:space="preserve">
<g>
	<g id="Calendar_2_">
		<g>
			<path d="M204.076,39.681h-68.025v22.675h68.025V39.681z M204.076,175.732h-22.675v22.675h22.675V175.732z M249.427,175.732
				h-22.675v22.675h22.675V175.732z M181.401,243.758h22.675v-22.675h-22.675V243.758z M249.427,28.344h-22.675v45.35h22.675V28.344
				z M204.076,130.382h-22.675v22.675h22.675V130.382z M294.777,130.382h-22.675v22.675h22.675V130.382z M294.777,175.732h-22.675
				v22.675h22.675V175.732z M249.427,130.382h-22.675v22.675h22.675V130.382z M272.102,39.681v22.675h45.35v226.751H22.675V62.357
				h45.35V39.681H0v272.102h340.127V39.681H272.102z M113.376,221.083H90.701v22.675h22.675V221.083z M68.025,175.732H45.35v22.675
				h22.675V175.732z M113.376,175.732H90.701v22.675h22.675V175.732z M45.35,243.758h22.675v-22.675H45.35V243.758z
				 M158.726,130.382h-22.675v22.675h22.675V130.382z M158.726,175.732h-22.675v22.675h22.675V175.732z M158.726,221.083h-22.675
				v22.675h22.675V221.083z M113.376,28.344H90.701v45.35h22.675V28.344z M249.427,221.083h-22.675v22.675h22.675V221.083z"/>
		</g>
	</g>
</g>
<g>
</g>
<g>
</g>
<g>
</g>
<g>
</g>
<g>
</g>
<g>
</g>
<g>
</g>
<g>
</g>
<g>
</g>
<g>
</g>
<g>
</g>
<g>
</g>
<g>
</g>
<g>
</g>
<g>
</g>
</svg>
