<?xml version="1.0" encoding="iso-8859-1"?>
<!-- Generator: Adobe Illustrator 19.1.0, SVG Export Plug-In . SVG Version: 6.00 Build 0)  -->
<svg version="1.1" id="Capa_1" xmlns="http://www.w3.org/2000/svg" xmlns:xlink="http://www.w3.org/1999/xlink" x="0px" y="0px"
	 viewBox="0 0 513.32 513.32" style="enable-background:new 0 0 513.32 513.32;" xml:space="preserve">
<g>
	<g>
		<g>
			<path d="M42.777,256.66c0-47.055,38.499-85.553,85.553-85.553h106.942V128.33H128.33C57.749,128.33,0,186.079,0,256.66
				s57.749,128.33,128.33,128.33h106.942v-42.777H128.33C81.275,342.213,42.777,303.715,42.777,256.66L42.777,256.66z"/>
			<path d="M384.99,128.33H278.048v42.777H384.99c47.055,0,85.553,38.499,85.553,85.553s-38.499,85.553-85.553,85.553H278.048
				v42.777H384.99c70.581,0,128.33-57.749,128.33-128.33S455.571,128.33,384.99,128.33L384.99,128.33z"/>
			<rect x="128.33" y="235.272" width="256.66" height="42.777"/>
		</g>
	</g>
</g>
<g>
</g>
<g>
</g>
<g>
</g>
<g>
</g>
<g>
</g>
<g>
</g>
<g>
</g>
<g>
</g>
<g>
</g>
<g>
</g>
<g>
</g>
<g>
</g>
<g>
</g>
<g>
</g>
<g>
</g>
</svg>
