<?xml version="1.0" encoding="iso-8859-1"?>
<!-- Generator: Adobe Illustrator 16.0.0, SVG Export Plug-In . SVG Version: 6.00 Build 0)  -->
<!DOCTYPE svg PUBLIC "-//W3C//DTD SVG 1.1//EN" "http://www.w3.org/Graphics/SVG/1.1/DTD/svg11.dtd">
<svg version="1.1" id="Capa_1" xmlns="http://www.w3.org/2000/svg" xmlns:xlink="http://www.w3.org/1999/xlink" x="0px" y="0px"
	 width="734.123px" height="734.123px" viewBox="0 0 734.123 734.123" style="enable-background:new 0 0 734.123 734.123;"
	 xml:space="preserve">
<g>
	<g>
		<path d="M647.62,313.624h-92.054V193.326c0-55.955-17.586-102.238-53.202-138.752C466.749,18.06,421.877,0,367.294,0
			c-55.047,0-100.384,18.06-136,54.573c-35.625,36.514-53.665,82.797-53.665,138.752v29.211c0,14.31,12.03,25.461,25.441,25.461
			c14.339,0,25.905-11.151,25.905-25.461v-29.211c0-41.547,12.947-75.791,38.398-102.238c25.895-26.744,59.211-40.166,99.92-40.166
			c40.243,0,72.968,13.52,98.527,40.166c25.323,26.546,38.398,60.691,38.398,102.238v120.298H86.503
			c-14.339,0-25.441,11.151-25.441,25.461v369.578c0,14.408,11.102,25.461,25.441,25.461H647.62
			c13.412,0,25.441-11.053,25.441-25.461V339.084C673.062,324.775,661.032,313.624,647.62,313.624z M621.715,682.807H112.408
			V364.545h509.307V682.807z"/>
		<path d="M341.388,524.613v106.385c0,14.309,11.566,26.348,25.906,26.348c14.339,0,25.44-12.039,25.44-26.348V524.613
			c21.741-9.77,37.008-29.605,37.008-51.809c0-15.297-6.691-28.521-19.432-39.869c-12.711-11.25-26.833-17.074-43.017-17.074
			c-16.659,0-31.343,5.725-44.409,17.074c-12.839,11.25-19.431,24.572-19.431,39.869
			C303.454,494.516,319.648,514.844,341.388,524.613z"/>
	</g>
</g>
<g>
</g>
<g>
</g>
<g>
</g>
<g>
</g>
<g>
</g>
<g>
</g>
<g>
</g>
<g>
</g>
<g>
</g>
<g>
</g>
<g>
</g>
<g>
</g>
<g>
</g>
<g>
</g>
<g>
</g>
</svg>
