<?xml version="1.0" encoding="iso-8859-1"?>
<!-- Generator: Adobe Illustrator 16.0.0, SVG Export Plug-In . SVG Version: 6.00 Build 0)  -->
<!DOCTYPE svg PUBLIC "-//W3C//DTD SVG 1.1//EN" "http://www.w3.org/Graphics/SVG/1.1/DTD/svg11.dtd">
<svg version="1.1" id="Capa_1" xmlns="http://www.w3.org/2000/svg" xmlns:xlink="http://www.w3.org/1999/xlink" x="0px" y="0px"
	 width="792px" height="792px" viewBox="0 0 792 792" style="enable-background:new 0 0 792 792;" xml:space="preserve">
<g>
	<g>
		<path d="M630.05,338.359h-76.848v-129.75c0-60.388-14.969-110.288-44.417-149.712C479.336,19.462,441.413,0,395.995,0
			c-45.408,0-83.341,19.462-113.28,58.897c-29.949,39.424-44.918,89.325-44.918,149.712v31.439c0,15.469,9.987,27.447,21.464,27.447
			c11.477,0,21.453-11.978,21.453-27.447v-31.439c0-44.918,10.604-81.755,31.94-110.288c21.581-28.863,49.411-43.417,83.341-43.417
			c33.441,0,60.771,14.554,82.351,43.417c21.336,28.533,31.94,65.37,31.94,110.288v129.75H161.94
			c-11.978,0-21.453,11.978-21.453,27.447v398.725c0,15.545,9.475,27.469,21.453,27.469h468.109
			c11.488,0,21.464-11.924,21.464-27.469V365.806C651.513,350.337,641.537,338.359,630.05,338.359z M608.597,736.638H183.403
			V393.253h425.193V736.638L608.597,736.638z"/>
		<path d="M374.542,565.931v114.78c0,15.47,9.976,28.459,21.453,28.459c11.977,0,21.463-12.989,21.463-28.459v-114.78
			c17.961-10.477,30.939-31.94,30.939-55.896c0-16.47-5.611-30.832-15.97-42.916c-10.604-12.371-22.954-18.472-36.433-18.472
			c-13.468,0-25.967,5.983-36.922,18.472c-10.498,11.956-15.97,26.446-15.97,42.916C343.103,533.49,356.57,555.454,374.542,565.931z
			"/>
	</g>
</g>
<g>
</g>
<g>
</g>
<g>
</g>
<g>
</g>
<g>
</g>
<g>
</g>
<g>
</g>
<g>
</g>
<g>
</g>
<g>
</g>
<g>
</g>
<g>
</g>
<g>
</g>
<g>
</g>
<g>
</g>
</svg>
